<?xml version="1.0" encoding="UTF-8"?>
<svg version="1.1" xmlns="http://www.w3.org/2000/svg" width="502" height="502">
<path d="M0 0 C165.66 0 331.32 0 502 0 C502 165.66 502 331.32 502 502 C336.34 502 170.68 502 0 502 C0 336.34 0 170.68 0 0 Z " fill="#FEFEFE" transform="translate(0,0)"/>
<path d="M0 0 C12.54 0 25.08 0 38 0 C38 21.45 38 42.9 38 65 C62.75 65 87.5 65 113 65 C113 43.55 113 22.1 113 0 C125.87 0 138.74 0 152 0 C152 54.45 152 108.9 152 165 C139.13 165 126.26 165 113 165 C113 142.56 113 120.12 113 97 C88.25 97 63.5 97 38 97 C38 119.44 38 141.88 38 165 C25.46 165 12.92 165 0 165 C0 110.55 0 56.1 0 0 Z " fill="#020202" transform="translate(163,159)"/>
<path d="M0 0 C4.94781233 3.01767564 8.83782341 7.45975278 10.53515625 13.05859375 C11.91912666 19.84252015 11.69666207 27.21988898 7.97265625 33.203125 C3.25246366 38.49739507 -2.22027817 42.57165497 -9.40625 43.515625 C-15.57591424 43.81704371 -19.86762665 42.52750648 -25.02734375 39.203125 C-25.93484375 38.625625 -26.84234375 38.048125 -27.77734375 37.453125 C-32.94985264 32.28061611 -34.30078563 27.49985888 -34.52734375 20.203125 C-34.2765457 12.38658582 -32.71583702 7.89161827 -27.21484375 2.390625 C-18.27984978 -3.74123361 -9.75559629 -4.88640096 0 0 Z " fill="#0202C8" transform="translate(377.02734375,282.796875)"/>
<path d="M0 0 C0 0.66 0 1.32 0 2 C-1.423125 2.61875 -1.423125 2.61875 -2.875 3.25 C-6.00716624 5.0040131 -6.86500606 5.70851757 -8 9 C-8.99 9 -9.98 9 -11 9 C-14.0505399 16.84424546 -15.52911569 22.85688418 -12.1875 30.8125 C-10.83550625 33.73922977 -9.50949905 35.94221078 -7 38 C-3.89160979 38.7269226 -3.89160979 38.7269226 -1 39 C-1 39.66 -1 40.32 -1 41 C1.22909871 41.02714735 3.45829367 41.04646254 5.6875 41.0625 C6.92886719 41.07410156 8.17023438 41.08570313 9.44921875 41.09765625 C12.46235454 41.01478673 15.08275339 40.70839449 18 40 C18 39.34 18 38.68 18 38 C18.99 38 19.98 38 21 38 C21 37.34 21 36.68 21 36 C22.98 35.505 22.98 35.505 25 35 C21.18995951 40.40779941 17.41092818 43.18865839 11 45 C4.02312572 46.05841127 -1.11808713 44.78968883 -7 41 C-7.9075 40.4225 -8.815 39.845 -9.75 39.25 C-14.92250889 34.07749111 -16.27344188 29.29673388 -16.5 22 C-16.28407623 15.27037596 -15.26188153 10.39270566 -10.5390625 5.48046875 C-7.48836221 2.79368449 -4.19345421 0 0 0 Z M-10 9 C-8 10 -8 10 -8 10 Z " fill="#1411A0" transform="translate(359,281)"/>
<path d="M0 0 C3.15143994 2.57845086 4.07118488 5.07039756 5 9 C5.65630886 15.75545496 4.74733718 20.81849135 2 27 C1.67 27 1.34 27 1 27 C0.875 21.25 0.875 21.25 2 19 C2.07065617 16.95944995 2.08421976 14.91665743 2.0625 12.875 C2.05347656 11.77929688 2.04445313 10.68359375 2.03515625 9.5546875 C2.02355469 8.71164062 2.01195312 7.86859375 2 7 C1.34 6.67 0.68 6.34 0 6 C0 4.02 0 2.04 0 0 Z " fill="#181999" transform="translate(383,289)"/>
<path d="M0 0 C0.66 0.33 1.32 0.66 2 1 C-4.85640899 7.43960601 -10.49732645 10.40470364 -20.05859375 10.10546875 C-20.69925781 10.07066406 -21.33992188 10.03585937 -22 10 C-22 9.67 -22 9.34 -22 9 C-16.06 8.505 -16.06 8.505 -10 8 C-9.67 7.01 -9.34 6.02 -9 5 C-7.68 5 -6.36 5 -5 5 C-5 4.34 -5 3.68 -5 3 C-4.01 3 -3.02 3 -2 3 C-2 2.34 -2 1.68 -2 1 C-1.34 0.67 -0.68 0.34 0 0 Z " fill="#2825A7" transform="translate(382,316)"/>
<path d="M0 0 C0.66 0.33 1.32 0.66 2 1 C-0.16069021 4.98021881 -2.62650361 7.97250324 -6 11 C-6.66 11 -7.32 11 -8 11 C-8 11.66 -8 12.32 -8 13 C-9.65 13.33 -11.3 13.66 -13 14 C-13 13.34 -13 12.68 -13 12 C-11.35546875 10.81640625 -11.35546875 10.81640625 -9.1875 9.5625 C-4.77428724 6.99817419 -2.10825123 4.70302198 0 0 Z " fill="#D0D2FA" transform="translate(386,312)"/>
<path d="M0 0 C0 0.66 0 1.32 0 2 C-1.423125 2.61875 -1.423125 2.61875 -2.875 3.25 C-6.00716624 5.0040131 -6.86500606 5.70851757 -8 9 C-9.65 9 -11.3 9 -13 9 C-9.64546138 4.56016948 -6.11017563 0 0 0 Z M-10 9 C-8 10 -8 10 -8 10 Z " fill="#1E1EA9" transform="translate(359,281)"/>
<path d="M0 0 C-0.54269531 0.31453125 -1.08539063 0.6290625 -1.64453125 0.953125 C-5.54581824 3.28686785 -8.43891472 5.15837208 -11 9 C-11.66 9 -12.32 9 -13 9 C-11.22665985 5.00998466 -9.09773598 0.8899486 -4.9375 -0.875 C-3 -1 -3 -1 0 0 Z " fill="#DEE2FD" transform="translate(357,282)"/>
</svg>
